<?xml version="1.0" encoding="utf-8"?>
<!-- Generator: Adobe Illustrator 28.1.0, SVG Export Plug-In . SVG Version: 6.00 Build 0)  -->
<svg version="1.1" id="Layer_1" xmlns="http://www.w3.org/2000/svg" xmlns:xlink="http://www.w3.org/1999/xlink" x="0px" y="0px"
	 width="64px" height="64px" viewBox="0 0 64 64" style="enable-background:new 0 0 64 64;" xml:space="preserve">
<style type="text/css">
	.st0{fill-rule:evenodd;clip-rule:evenodd;fill:#1D2329;}
	.st1{fill-rule:evenodd;clip-rule:evenodd;fill:#009FDB;}
	.st2{fill:#1D2329;}
	.st3{fill:#009FDB;}
	.st4{fill:none;}
</style>
<g>
	<rect x="6.5" y="33.6" class="st3" width="6.7" height="1.7"/>
	<rect x="50.7" y="33.6" class="st3" width="6.8" height="1.7"/>
	<path class="st4" d="M45.2,32.1c0-3.6-2.4-7.8-6-8.9l-1.9-0.5c-3.6-0.9-7.2-0.9-10.7,0l-2.2,0.5c-3.8,1-6.1,5.1-6.1,8.9v8.7h26.9
		V32.1z M30.4,27.4h-1.3c-2.5,0-3.7,3.1-3.7,4.7v1.5H24v-1.5c0-3.4,2.3-6.1,5.1-6.1h1.1L30.4,27.4z"/>
	<path class="st2" d="M47.3,40.8v-8.7c0-5.1-3.6-9.7-8.5-11.1l-0.7-0.2c-4.1-1-8.4-1-12.4,0L25.1,21c-5.1,1.4-8.5,5.8-8.5,11.1v8.7
		c-2.4,0-4.3,1.9-4.3,4.3v9h39.2v-9C51.5,42.7,49.7,40.8,47.3,40.8z M25.9,22.5c3.7-1,7.8-1.1,11.3-0.3c5.4,0.8,7.5,5.3,8.3,7.8
		c0.3,0.8,0.4,1.7,0.4,2.6v8.2l-27.5,0v-8.7C18.3,24.4,25.9,22.5,25.9,22.5z M50.4,52.8H13.6v-8c0-1.2,1.2-2.8,3.1-2.8l30.8,0.1
		c1.2,0,2.8,1.2,2.8,2.4V52.8z"/>
	<path class="st3" d="M24,32.1v1.5h1.4v-1.5c0-1.5,0.8-4.7,3.7-4.7h1.1l0-1.5h-1.1C26.2,26,24,28.7,24,32.1z"/>
	<rect x="30.9" y="9.9" class="st3" width="1.7" height="6.7"/>
	<rect x="15.4" y="15.1" transform="matrix(0.7071 -0.7071 0.7071 0.7071 -8.2493 16.8875)" class="st3" width="1.7" height="6.7"/>
	<rect x="44.8" y="18.2" transform="matrix(0.7088 -0.7054 0.7054 0.7088 0.5834 39.5049)" class="st3" width="6.7" height="1.7"/>
</g>
</svg>
