<?xml version="1.0" encoding="utf-8"?>
<!-- Generator: Adobe Illustrator 24.1.0, SVG Export Plug-In . SVG Version: 6.00 Build 0)  -->
<svg version="1.1" id="Icon__x28_Outline_x29_" xmlns="http://www.w3.org/2000/svg" xmlns:xlink="http://www.w3.org/1999/xlink"
	 x="0px" y="0px" viewBox="0 0 96 96" style="enable-background:new 0 0 96 96;" xml:space="preserve">
<style type="text/css">
	.st0{fill:#009FDB;}
</style>
<g>
	<rect x="42" y="63" width="12" height="2"/>
	<rect x="63" y="63" width="11" height="2"/>
	<rect x="22" y="63" width="11" height="2"/>
	<rect x="63" y="73" width="11" height="2"/>
	<rect x="22" y="73" width="11" height="2"/>
	<path d="M30,52V33c0-3.3-2.7-6-6-6h-6c-3.3,0-6,2.7-6,6v19v1v27c0,3.3,2.7,6,6,6h23h14h23c3.3,0,6-2.7,6-6V52H30z M18,29h6
		c2.2,0,4,1.8,4,4v2H14v-2C14,30.8,15.8,29,18,29z M14,37h14v15H14V37z M43,84v-7c0-2.8,2.2-5,5-5s5,2.2,5,5v7H43z M82,80
		c0,2.2-1.8,4-4,4H55v-7c0-3.9-3.1-7-7-7s-7,3.1-7,7v7H18c-2.2,0-4-1.8-4-4V54h68V80z"/>
	<path class="st0" d="M22,23c0-2.1,1.7-3.7,3.7-3.7c0.5,0,1.1,0.1,1.6,0.4l0.9,0.5l0.4-0.9c0.9-2,2.9-3.3,5.1-3.3
		c1.1,0,2.2,0.3,3.1,0.9l1.3,0.9l0.2-1.5c0.8-4.9,5.1-8.4,10.1-8c4.7,0.3,8.6,4.3,8.8,9.1c0.1,2.6-0.8,5.1-2.6,7
		C52.9,26,50.5,27,47.9,27L31,27l0,2l16.9,0c3.2,0,6.1-1.3,8.3-3.5c2.2-2.3,3.3-5.3,3.2-8.4c-0.2-5.8-4.9-10.6-10.6-11
		c-5.6-0.4-10.5,3.1-11.9,8.3c-0.9-0.4-1.9-0.6-3-0.6c-2.7,0-5.1,1.4-6.5,3.7c-0.5-0.2-1.1-0.2-1.6-0.2c-3.2,0-5.7,2.6-5.7,5.7v1h2
		V23z"/>
</g>
</svg>
