<?xml version="1.0" encoding="utf-8"?>
<!-- Generator: Adobe Illustrator 24.1.0, SVG Export Plug-In . SVG Version: 6.00 Build 0)  -->
<svg version="1.1" id="Icon__x28_Outline_x29_" xmlns="http://www.w3.org/2000/svg" xmlns:xlink="http://www.w3.org/1999/xlink"
	 x="0px" y="0px" viewBox="0 0 96 96" style="enable-background:new 0 0 96 96;" xml:space="preserve">
<style type="text/css">
	.st0{fill:#009FDB;}
</style>
<g>
	<path d="M86,50V39H75.7c-5.2-10.3-16-17-27.7-17c-11.6,0-22.4,6.7-27.7,17H10v11h7v25h-7v11h76V75h-7V50H86z M48,24
		c10.5,0,20.3,5.8,25.4,15H22.6C27.7,29.8,37.5,24,48,24z M12,41h72v7H12V41z M54,75V50h13v25H54z M42,50v25H29V50H42z M44,50h8v25
		h-8V50z M19,50h8v25h-8V50z M84,84H12v-7h72V84z M77,75h-8V50h8V75z"/>
	<path class="st0" d="M49,19h-2V6.1l14.8,5.5L49,15.9V19z M49,9v4.8l6.8-2.3L49,9z"/>
</g>
</svg>
