<?xml version="1.0" encoding="utf-8"?>
<!-- Generator: Adobe Illustrator 24.2.1, SVG Export Plug-In . SVG Version: 6.00 Build 0)  -->
<svg version="1.1" id="Icon__x28_Outline_x29_" xmlns="http://www.w3.org/2000/svg" xmlns:xlink="http://www.w3.org/1999/xlink"
	 x="0px" y="0px" viewBox="0 0 96 96" style="enable-background:new 0 0 96 96;" xml:space="preserve">
<style type="text/css">
	.st0{fill:#009FDB;}
</style>
<g>
	<path class="st0" d="M75,67H50V51h25V67z M52,65h21V53H52V65z"/>
	<path d="M87,27h-3.5l-3.3-12H15.8l-3.3,12H9v8h3v40c0,3.3,2.7,6,6,6h3h19h38c3.3,0,6-2.7,6-6V35h3V27z M17.3,17h61.4l2.7,10H14.6
		L17.3,17z M23,79V60.5c0-4.1,3.4-7.5,7.5-7.5s7.5,3.4,7.5,7.5V79H23z M78,79H40V60.5c0-5.2-4.3-9.5-9.5-9.5S21,55.3,21,60.5V79h-3
		c-2.2,0-4-1.8-4-4V39.9c1.8,2.3,4.6,3.9,7.8,3.9c3.8,0,7.2-2.2,8.8-5.5c1.6,3.2,4.9,5.5,8.8,5.5s7.2-2.2,8.8-5.5
		c1.6,3.2,4.9,5.5,8.8,5.5s7.2-2.2,8.8-5.5c1.6,3.2,4.9,5.5,8.8,5.5c3.2,0,6-1.5,7.8-3.9V75C82,77.2,80.2,79,78,79z M14.1,35h15.4
		c-0.5,3.8-3.7,6.8-7.7,6.8S14.6,38.8,14.1,35z M31.6,35h15.4c-0.5,3.8-3.7,6.8-7.7,6.8S32.1,38.8,31.6,35z M49.1,35h15.4
		c-0.5,3.8-3.7,6.8-7.7,6.8S49.6,38.8,49.1,35z M66.6,35h15.4c-0.5,3.8-3.7,6.8-7.7,6.8S67.1,38.8,66.6,35z M85,33H11v-4h74V33z"/>
</g>
</svg>
